<?xml version="1.0" encoding="UTF-8" standalone="no"?>
<!-- Created with Inkscape (http://www.inkscape.org/) -->

<svg
   width="122.61296mm"
   height="122.61269mm"
   viewBox="0 0 122.61296 122.61269"
   version="1.1"
   id="svg1"
   xml:space="preserve"
   xmlns="http://www.w3.org/2000/svg"
   xmlns:svg="http://www.w3.org/2000/svg"><defs
     id="defs1" /><g
     id="layer1"
     transform="translate(-4.7931433,-31.81467)"><path
       id="path21"
       style="fill:#000000;stroke-width:0.611741"
       d="m 70.099078,131.77778 c 0.09071,-0.0728 0.299869,-0.17388 0.464795,-0.22461 0.678304,-0.20864 2.476486,-1.83274 2.924188,-2.6411 0.554378,-1.00097 1.130552,-2.11599 1.253059,-2.42495 0.561988,-1.41729 0.68731,-1.757 0.845836,-2.29285 0.09818,-0.33186 0.235043,-0.8206 0.304145,-1.08609 0.0691,-0.26549 0.175662,-0.59131 0.236805,-0.72406 0.106786,-0.23184 0.156184,-0.44644 0.472252,-2.0515 0.07843,-0.39823 0.21625,-1.07703 0.306286,-1.50845 0.09004,-0.43141 0.196406,-1.11022 0.236371,-1.50845 0.03995,-0.39823 0.148249,-1.18565 0.240628,-1.74981 0.233887,-1.42839 0.406184,-3.87111 0.294492,-4.17505 -0.09411,-0.2561 -0.77042,-0.55345 -2.164498,-0.95167 -0.871737,-0.24902 -3.349532,-0.36363 -4.326359,-0.20013 -0.885911,0.14828 -1.691843,0.67975 -1.999365,1.31846 -0.234633,0.48734 -0.253444,2.25472 -0.05316,4.99823 0.149405,2.04684 0.06968,2.69639 -0.405003,3.29986 -0.47525,0.60418 -1.181682,0.20883 -1.41177,-0.79009 -0.06911,-0.30005 -0.12641,-1.97891 -0.128037,-3.75195 -0.0031,-3.4529 -0.0879,-4.0832 -0.625786,-4.65576 -0.686423,-0.73066 -2.234102,-0.97707 -3.617145,-0.5759 -2.187187,0.63444 -2.125383,0.61275 -3.385325,1.18818 -0.377529,0.17243 -0.735667,0.3135 -0.795862,0.3135 -0.0602,0 -0.208169,0.10909 -0.328829,0.24242 -0.236218,0.26101 -0.243283,0.12106 0.1828,3.61923 0.190631,1.56509 0.599445,4.09406 0.897344,5.5511 0.287831,1.40777 0.520635,2.29244 0.644781,2.45021 0.06247,0.0794 0.14866,0.37438 0.191549,0.65555 0.08002,0.52466 0.172254,0.76311 0.899228,2.32468 1.346454,2.89226 3.050526,4.51386 5.572268,5.30259 0.606902,0.18981 1.047447,0.23802 1.946896,0.21305 0.639379,-0.0177 1.236726,-0.0918 1.327441,-0.16464 z M 66.039952,31.81467 c -1.897082,8.56e-4 -3.79384,0.0412 -3.820695,0.120444 -0.02213,0.06528 -0.827825,0.172543 -1.790221,0.238043 -1.736011,0.118151 -3.625428,0.361023 -5.249269,0.675244 -2.973256,0.575337 -4.074099,0.829966 -5.852754,1.352387 -0.56416,0.165704 -1.270256,0.371312 -1.568932,0.457117 -0.298677,0.08581 -1.167622,0.381447 -1.930897,0.65691 -0.763281,0.275463 -1.523448,0.546098 -1.689376,0.601271 -0.341254,0.113474 -1.081619,0.416539 -1.647332,0.674613 -0.209148,0.09541 -0.412807,0.173553 -0.452692,0.173553 -0.08711,0 -2.352472,1.059676 -3.451146,1.614454 -2.346577,1.184914 -4.121721,2.22375 -6.488166,3.796672 -0.764872,0.508393 -1.479347,0.97874 -1.5879,1.045112 -0.230608,0.140999 -2.362289,1.805304 -3.540294,2.764204 -2.059719,1.676621 -5.50918,5.063604 -7.250977,7.119469 -0.275645,0.325344 -0.595846,0.691436 -0.711599,0.813709 -0.11576,0.122271 -0.618776,0.752283 -1.117822,1.399805 -0.499052,0.647522 -1.019196,1.312907 -1.155755,1.478836 -0.49633,0.603088 -3.51143,5.233121 -3.772014,5.792374 -0.04639,0.09956 -0.212441,0.398376 -0.368919,0.663864 -0.929234,1.576615 -2.545351,4.991759 -3.4837063,7.361306 -0.693347,1.750842 -1.5844224,4.344673 -1.906871,5.551167 -0.053215,0.199115 -0.2143931,0.796438 -0.3581706,1.327416 -0.4886524,1.804617 -0.8596254,3.628315 -1.3871601,6.8182 -0.093297,0.56416 -0.2253616,1.785733 -0.2936809,2.714888 -0.068325,0.929154 -0.1787807,1.707699 -0.2453136,1.729844 -0.1686263,0.05616 -0.1659199,8.553213 0.00253,8.609371 0.069347,0.02312 0.1781898,0.835454 0.2478426,1.850283 0.068295,0.995044 0.1725038,1.999234 0.2317203,2.231534 0.059241,0.2323 0.1405714,0.77523 0.180824,1.20665 0.040265,0.43142 0.1485108,1.13751 0.2405717,1.56893 0.092067,0.43142 0.2826655,1.32756 0.4232924,1.99128 0.4022747,1.89858 1.0872609,4.41314 1.6274158,5.97351 0.080419,0.2323 0.2678684,0.80243 0.4163379,1.26704 0.1484695,0.4646 0.343397,1.00753 0.4334086,1.20665 0.090011,0.19911 0.3656919,0.87802 0.6126517,1.50855 0.6762925,1.72668 2.0044445,4.54192 2.9032995,6.15433 0.166498,0.29868 0.437605,0.78755 0.602536,1.08622 0.164932,0.29867 0.391138,0.68638 0.50264,0.86175 0.111496,0.17537 0.389537,0.63704 0.61771,1.02583 0.386211,0.65808 1.560629,2.44149 1.69728,2.57737 0.03337,0.0332 0.223418,0.30482 0.422344,0.60349 0.198932,0.29868 0.416034,0.60421 0.482408,0.67904 0.06637,0.0748 0.202029,0.25678 0.301584,0.40432 0.23281,0.34502 1.935269,2.5549 2.104134,2.73133 0.07066,0.0738 0.399967,0.44959 0.731831,0.83489 2.493675,2.89525 6.272939,6.44402 9.318123,8.74973 2.334097,1.76729 4.921202,3.45648 7.214624,4.7109 1.332642,0.72892 2.89377,1.55919 3.137549,1.66852 0.132742,0.0595 0.621293,0.28042 1.085892,0.49094 1.417068,0.64207 1.624187,0.73045 3.137865,1.33943 0.132742,0.0534 0.493347,0.20358 0.801695,0.33382 0.308343,0.13024 0.733123,0.27463 0.943636,0.32087 0.210506,0.0462 0.528179,0.16001 0.706226,0.2529 0.178052,0.0929 0.405292,0.16979 0.504852,0.1704 0.09956,6.1e-4 0.336562,0.0826 0.526665,0.18177 0.190112,0.0992 0.451522,0.18019 0.581041,0.18019 0.129524,0 0.354185,0.0642 0.499161,0.14257 0.144971,0.0783 0.53527,0.21184 0.867134,0.29684 0.331857,0.085 1.037638,0.26873 1.568617,0.40813 0.530973,0.13939 1.209876,0.30034 1.508552,0.35785 0.29867,0.0575 0.868801,0.18398 1.267032,0.28072 1.748704,0.42481 4.985651,0.89318 7.240546,1.04795 0.995584,0.0683 1.82814,0.17801 1.850285,0.24342 l 3.16e-4,-3.1e-4 c 0.05674,0.16778 7.226298,0.16154 7.282273,-0.006 0.02422,-0.0728 0.852167,-0.17683 1.971047,-0.24753 1.061076,-0.067 2.320896,-0.20058 2.799295,-0.29684 0.478394,-0.0963 1.048524,-0.1754 1.267032,-0.17577 0.218507,-3.7e-4 0.604852,-0.0582 0.858596,-0.12866 0.253744,-0.0705 0.878264,-0.20227 1.387795,-0.29305 1.298059,-0.23126 2.019583,-0.38443 2.857142,-0.60633 1.897161,-0.50263 3.614165,-1.00296 4.163379,-1.21297 0.232303,-0.0888 0.612384,-0.21046 0.844686,-0.27029 0.642982,-0.16565 3.774312,-1.39792 5.189208,-2.04217 1.170902,-0.53316 3.330262,-1.6178 4.404582,-2.21225 0.464605,-0.25708 0.95346,-0.52308 1.086207,-0.59116 0.132742,-0.0681 0.349977,-0.19142 0.482725,-0.27408 0.132742,-0.0827 0.730064,-0.44759 1.32741,-0.81118 0.597353,-0.36359 1.316656,-0.82574 1.598332,-1.02677 0.281669,-0.20104 0.788999,-0.55549 1.127619,-0.78779 5.58847,-3.8338 11.40905,-9.65726 15.19459,-15.20249 0.2323,-0.34029 0.58757,-0.84681 0.78968,-1.12541 0.2808,-0.38707 2.09499,-3.43045 3.07148,-5.15254 0.18727,-0.33026 1.47551,-2.94736 1.72256,-3.49951 0.28307,-0.63264 0.44574,-1.01876 0.8134,-1.93089 0.14715,-0.36504 0.31544,-0.75815 0.37429,-0.87346 0.29279,-0.57375 1.51184,-4.30728 2.09844,-6.42747 0.47888,-1.73082 0.69494,-2.66717 0.96103,-4.16337 0.0885,-0.4978 0.21711,-1.20358 0.28578,-1.56862 0.32218,-1.71295 0.50958,-3.24382 0.62814,-5.128827 0.071,-1.128325 0.18036,-2.06966 0.2431,-2.091805 0.15847,-0.05591 0.15227,-6.262329 -0.006,-6.315245 -0.0663,-0.02214 -0.17768,-0.909096 -0.24753,-1.971047 -0.0698,-1.061952 -0.20575,-2.385918 -0.3019,-2.94218 -0.0961,-0.556262 -0.17481,-1.169758 -0.17481,-1.363136 0,-0.193371 -0.0764,-0.688563 -0.16976,-1.100436 -0.0933,-0.411873 -0.28604,-1.346215 -0.42835,-2.076309 -0.14231,-0.730095 -0.33782,-1.571844 -0.43436,-1.87052 -0.0965,-0.298677 -0.17515,-0.631837 -0.17482,-0.740366 3.2e-4,-0.108529 -0.0866,-0.488621 -0.19284,-0.844691 -0.10627,-0.356076 -0.30314,-1.027505 -0.43751,-1.49211 -0.13437,-0.464604 -0.28921,-0.953471 -0.34427,-1.086213 -0.0551,-0.132747 -0.2425,-0.675673 -0.41665,-1.206649 -0.17414,-0.530976 -0.39377,-1.136602 -0.4881,-1.345748 -0.0943,-0.209147 -0.17165,-0.432769 -0.17165,-0.497266 0,-0.107037 -0.21664,-0.651233 -0.67209,-1.686847 -0.0949,-0.215709 -0.24624,-0.568599 -0.33636,-0.784308 -0.39246,-0.939432 -1.80849,-3.867936 -2.2505,-4.654321 -0.10002,-0.177947 -0.35935,-0.649409 -0.57629,-1.047641 -0.21695,-0.398232 -0.50202,-0.886776 -0.6332,-1.085892 -0.13119,-0.199116 -0.32139,-0.525129 -0.42266,-0.724244 -0.22328,-0.438973 -0.87332,-1.440538 -1.68559,-2.596341 -0.33186,-0.472211 -0.65786,-0.94685 -0.72424,-1.054912 -0.18615,-0.303082 -2.58352,-3.414504 -3.00478,-3.899729 -0.2058,-0.237061 -0.72529,-0.834381 -1.15449,-1.327412 -2.7525,-3.161893 -7.27204,-7.171332 -10.80454,-9.584935 -0.66372,-0.45349 -1.342624,-0.918365 -1.508552,-1.033415 -0.644347,-0.446772 -2.020501,-1.3037 -2.627323,-1.635635 -0.350026,-0.191466 -0.83888,-0.465955 -1.086207,-0.610123 -0.589009,-0.343345 -4.414463,-2.252004 -5.035257,-2.512252 -0.26549,-0.111298 -1.080041,-0.44394 -1.810135,-0.739102 -0.730088,-0.295163 -1.43619,-0.586833 -1.568932,-0.648374 -0.422199,-0.195732 -4.311604,-1.449437 -4.49657,-1.449437 -0.09765,0 -0.428995,-0.07831 -0.736579,-0.173869 -0.901137,-0.279974 -1.805253,-0.508659 -3.093604,-0.782412 -0.66372,-0.141029 -1.586739,-0.337108 -2.051344,-0.435937 -0.464599,-0.09883 -0.996354,-0.179152 -1.181675,-0.178295 -0.185321,8.56e-4 -0.728571,-0.07657 -1.206971,-0.171973 -0.478399,-0.0954 -1.738604,-0.233462 -2.800555,-0.306958 -1.061952,-0.0735 -1.948903,-0.185384 -1.971048,-0.248791 -0.02765,-0.07921 -1.924873,-0.11813 -3.82196,-0.117283 z M 42.025771,55.832014 c 0.132741,-3.33e-4 0.554027,0.21669 0.936365,0.482091 0.382344,0.265401 0.727712,0.482408 0.767237,0.482408 0.03952,0 0.26964,0.155288 0.511492,0.345209 0.241851,0.189921 1.308675,0.933439 2.370627,1.652074 2.907096,1.967266 4.02313,2.727668 4.887305,3.329753 0.431418,0.300576 1.952068,1.334472 3.379069,2.297603 1.426996,0.96313 2.936615,1.990182 3.354728,2.282429 0.418118,0.292247 0.887684,0.61299 1.043531,0.712547 1.35968,0.868588 2.249783,1.533819 2.311196,1.727312 0.0758,0.238828 -0.04163,0.4947 -1.229097,2.677269 -0.361111,0.66372 -0.715499,1.356061 -0.78747,1.538585 -0.07499,0.190169 -0.223294,0.331934 -0.347422,0.331934 -0.119137,0 -2.218152,-1.011284 -4.664436,-2.247341 -2.446285,-1.236056 -7.190065,-3.629789 -10.541848,-5.319449 -3.351783,-1.68966 -6.184407,-3.153425 -6.294698,-3.252619 -0.208671,-0.187673 -0.135196,-0.320401 2.129107,-3.842825 0.213327,-0.33186 0.542728,-0.874792 0.732148,-1.206652 0.189419,-0.33186 0.385018,-0.631966 0.434673,-0.667026 0.04967,-0.03506 0.135694,-0.17103 0.19094,-0.3019 0.25189,-0.596665 0.590943,-1.020837 0.816553,-1.021402 z m 48.175049,0.129295 c 0.16832,-0.0185 0.313639,0.07141 0.386938,0.262068 0.05744,0.149337 0.354712,0.693836 0.660699,1.21013 0.305992,0.516294 0.556384,0.968077 0.556384,1.003699 0,0.03562 0.259078,0.509162 0.575667,1.052383 0.521068,0.89408 0.881206,1.564056 1.510131,2.808146 0.213087,0.421508 0.212641,0.429179 -0.06007,0.656593 -0.151749,0.126531 -0.318681,0.231725 -0.370813,0.233933 -0.05212,0.0022 -0.8123,0.350998 -1.689377,0.775141 -2.214686,1.070995 -3.625966,1.741145 -7.326851,3.478648 -0.431418,0.202544 -0.865882,0.415573 -0.965443,0.47324 -0.09955,0.05767 -0.289604,0.1525 -0.422346,0.210857 -0.498165,0.218999 -1.982346,0.916134 -3.499512,1.643538 -0.862836,0.413685 -2.057798,0.982173 -2.655145,1.263555 -2.678287,1.261612 -3.633771,1.715744 -3.81848,1.814246 -0.109116,0.05819 -0.390927,0.186191 -0.626245,0.284513 -0.425411,0.17775 -0.429662,0.176456 -0.736891,-0.226346 -0.169947,-0.222809 -0.309173,-0.445312 -0.309173,-0.494421 0,-0.04911 -0.237093,-0.582076 -0.526978,-1.184523 -1.396794,-2.902855 -1.325814,-2.721253 -1.170933,-3.003828 0.11122,-0.202914 4.253641,-2.728545 7.953413,-4.84937 0.115784,-0.06637 0.484701,-0.297363 0.819714,-0.513072 0.33502,-0.215709 0.642194,-0.391996 0.682832,-0.391996 0.04062,0 0.307326,-0.157576 0.592734,-0.349952 0.285407,-0.192375 0.763507,-0.480554 1.062184,-0.640471 0.29867,-0.159917 0.760338,-0.4282 1.025828,-0.596213 0.265483,-0.168012 0.630111,-0.382133 0.810544,-0.475769 0.180433,-0.09363 1.04938,-0.59967 1.930899,-1.12446 0.881518,-0.52479 2.390126,-1.416024 3.352517,-1.980528 0.962396,-0.564504 1.835589,-1.098876 1.940374,-1.187685 0.107116,-0.09078 0.216404,-0.140958 0.317396,-0.152056 z M 52.350757,73.781955 c 0.260317,-0.01315 0.613546,0.182745 1.661557,0.782411 0.552805,0.316312 1.034535,0.57503 1.070402,0.57503 0.03585,0 0.371062,0.183271 0.744792,0.407174 0.373725,0.223898 0.950975,0.557676 1.282839,0.741944 0.331857,0.184275 0.929175,0.517582 1.327412,0.740684 0.398231,0.223102 1.06293,0.578156 1.477256,0.789047 0.835081,0.425056 0.978444,0.656863 0.710967,1.151015 -0.09923,0.183321 -0.288313,0.577624 -0.420131,0.876301 -0.848711,1.923007 -1.490493,3.25514 -1.602442,3.326597 -0.09975,0.06368 -1.850438,-0.934293 -4.03661,-2.300769 -1.0254,-0.640939 -2.567111,-1.508235 -2.680748,-1.508235 -0.13049,0 -1.570379,0.85385 -2.860938,1.696651 -0.398237,0.260063 -0.832707,0.528428 -0.965448,0.596209 -0.132748,0.06779 -0.567217,0.336769 -0.965448,0.597793 -0.398232,0.261023 -1.144993,0.727225 -1.659345,1.035946 -0.514358,0.308721 -0.965619,0.61042 -1.002751,0.670505 -0.03713,0.06007 -0.172517,0.109061 -0.300952,0.109061 -0.160398,0 -0.433559,-0.311645 -0.872507,-0.99548 -0.949642,-1.479428 -1.172511,-1.856609 -1.172511,-1.984322 0,-0.06352 0.300852,-0.328755 0.668606,-0.589259 0.367748,-0.260498 1.151283,-0.826444 1.741221,-1.257862 2.752669,-2.013024 7.165139,-5.148997 7.501033,-5.331149 0.136436,-0.07399 0.235419,-0.123315 0.353746,-0.129292 z m 27.368906,0.632253 c 0.222973,0.0012 1.165293,0.651406 4.024918,2.776532 0.580524,0.431418 1.450388,1.069439 1.933107,1.417826 2.149125,1.551087 3.173112,2.348589 3.206782,2.497077 0.01994,0.08805 -0.2379,0.624232 -0.573134,1.191793 -0.335234,0.567561 -0.609496,1.090098 -0.609496,1.160815 0,0.378423 -0.869534,-0.100644 -4.042615,-2.226161 -1.924788,-1.289336 -3.559518,-2.345763 -3.632603,-2.347868 -0.132582,-0.0037 -0.338146,0.09886 -2.160087,1.081784 -0.530973,0.28646 -1.371174,0.731122 -1.867351,0.987894 -0.496183,0.256779 -0.95516,0.519858 -1.019827,0.584519 -0.06466,0.06467 -0.190484,0.117595 -0.279456,0.117595 -0.08897,0 -0.308892,0.105904 -0.488726,0.235514 -0.179839,0.129615 -0.474264,0.270689 -0.654385,0.313596 -0.311633,0.07424 -0.348484,0.03236 -0.764388,-0.869026 -0.24039,-0.520977 -0.543777,-1.191867 -0.67398,-1.490537 -0.130203,-0.298677 -0.342691,-0.743706 -0.472294,-0.989155 -0.271613,-0.5144 -0.2999,-0.860242 -0.08472,-1.033732 0.08296,-0.06689 0.449293,-0.240291 0.814337,-0.385672 0.365044,-0.145386 0.826713,-0.337778 1.025828,-0.427404 0.641637,-0.288822 1.189481,-0.520769 1.991278,-0.843108 0.431418,-0.173447 0.947152,-0.389819 1.146274,-0.480828 1.016444,-0.464556 3.037274,-1.272384 3.180538,-1.271454 z M 67.879487,107.25494 c 2.222234,-0.0332 4.384487,0.0956 5.884053,0.39547 1.171961,0.23433 2.117217,0.42912 2.474002,0.50959 0.608878,0.13734 3.429162,1.05061 3.731234,1.20824 0.1713,0.0894 0.352846,0.16271 0.403376,0.16312 0.205416,0.002 2.74036,1.2619 3.703411,1.84111 2.633073,1.58359 4.240355,2.85213 6.523574,5.14843 2.319611,2.3329 4.41448,5.13602 5.734207,7.67332 0.310697,0.59735 0.609086,1.14086 0.663231,1.20761 0.185664,0.22885 0.272959,0.78367 0.12329,0.78367 -0.0778,0 -0.667439,-0.45234 -1.310342,-1.00528 -0.642903,-0.55294 -1.494734,-1.21841 -1.892965,-1.47852 -0.398231,-0.26012 -0.778312,-0.53395 -0.844685,-0.60854 -0.141331,-0.15884 -1.506259,-1.04193 -2.515099,-1.62742 -0.38763,-0.22497 -0.876172,-0.5112 -1.085889,-0.63605 -0.77704,-0.46258 -2.159874,-1.11929 -3.699937,-1.75734 -0.36505,-0.15124 -0.842012,-0.35042 -1.05997,-0.44258 -0.217963,-0.0921 -0.454089,-0.16754 -0.524769,-0.16754 -0.07069,0 -0.299814,-0.0795 -0.508962,-0.17671 -0.391368,-0.18194 -0.735417,-0.27689 -2.481906,-0.68315 -1.152667,-0.26812 -1.210079,-0.24182 -1.218031,0.55796 -0.0024,0.26548 -0.05781,0.71265 -0.12266,0.99358 -0.06483,0.28095 -0.172499,0.90545 -0.239307,1.38779 -0.238983,1.7253 -0.782405,3.76655 -1.631207,6.12653 -0.196528,0.54642 -1.356872,2.97307 -1.529101,3.19792 -1.8945,2.4734 -2.712747,3.25805 -4.136824,3.96612 -1.492311,0.742 -2.246092,0.93357 -3.855154,0.9803 -0.801436,0.0233 -1.620189,0.0161 -1.819305,-0.0161 -0.472515,-0.0764 -1.68189,-0.45129 -2.29286,-0.71065 -1.611894,-0.68426 -3.415781,-2.37813 -4.794363,-4.50163 -0.592759,-0.91305 -1.694706,-3.30207 -2.179688,-4.72609 -0.62526,-1.8359 -1.410577,-5.42703 -1.414663,-6.46824 -0.0031,-0.73675 -0.108204,-0.82052 -0.923404,-0.73532 -0.388883,0.0406 -1.059314,0.16131 -1.4899,0.26808 -1.041018,0.25814 -3.52705,1.0314 -3.679073,1.14438 -0.06637,0.0493 -0.256416,0.13064 -0.422344,0.18082 -0.821409,0.24845 -4.170339,1.92757 -4.595205,2.30392 -0.104785,0.0928 -0.223657,0.16882 -0.263965,0.16882 -0.09438,0 -1.756132,1.11743 -2.649451,1.78168 -1.034931,0.76955 -2.342513,1.87919 -3.31616,2.81416 -1.270445,1.21997 -1.500215,1.07429 -0.60949,-0.38694 0.28208,-0.46275 0.568313,-0.934 0.636045,-1.04701 1.661836,-2.77295 3.540182,-5.17652 5.910605,-7.563 1.66862,-1.67991 2.444176,-2.38089 3.640821,-3.29181 1.084066,-0.82523 2.908105,-2.08201 3.021846,-2.08201 0.04197,0 0.162026,-0.0759 0.266811,-0.16881 0.167635,-0.1486 0.908958,-0.56425 2.302344,-1.29106 2.08726,-1.08873 5.07816,-2.10097 7.84403,-2.65451 1.73949,-0.34812 4.021571,-0.54316 6.243799,-0.57629 z" /></g></svg>
